<svg width="25" height="25" xmlns="http://www.w3.org/2000/svg" xmlns:xlink="http://www.w3.org/1999/xlink" xml:space="preserve" overflow="hidden"><defs><clipPath id="clip0"><rect x="278" y="153" width="25" height="25"/></clipPath></defs><g clip-path="url(#clip0)" transform="translate(-278 -153)"><path d="M289.686 175.526C290.083 176.021 290.917 176.021 291.314 175.526L299.647 165.109C300.006 164.659 299.932 164.003 299.482 163.644 299.297 163.497 299.069 163.417 298.833 163.417L294.667 163.417 294.667 156.125C294.667 155.55 294.2 155.083 293.625 155.083L287.375 155.083C286.8 155.083 286.333 155.55 286.333 156.125L286.333 163.417 282.167 163.417C281.591 163.418 281.125 163.885 281.126 164.461 281.126 164.697 281.206 164.925 281.353 165.109L289.686 175.526ZM287.375 165.5 288.417 165.5 288.417 157.167 292.583 157.167 292.583 165.5 296.666 165.5 290.5 173.207 284.334 165.5 287.375 165.5Z"/></g></svg>